<?xml version="1.0" encoding="UTF-8" standalone="no"?>
<svg
   xmlns:dc="http://purl.org/dc/elements/1.1/"
   xmlns:cc="http://creativecommons.org/ns#"
   xmlns:rdf="http://www.w3.org/1999/02/22-rdf-syntax-ns#"
   xmlns:svg="http://www.w3.org/2000/svg"
   xmlns="http://www.w3.org/2000/svg"
   id="svg8"
   version="1.1"
   viewBox="0 0 93.133334 13.758333"
   height="13.758333mm"
   width="93.133331mm">
  <defs
     id="defs2" />
  <metadata
     id="metadata5">
    <rdf:RDF>
      <cc:Work
         rdf:about="">
        <dc:format>image/svg+xml</dc:format>
        <dc:type
           rdf:resource="http://purl.org/dc/dcmitype/StillImage" />
        <dc:title></dc:title>
      </cc:Work>
    </rdf:RDF>
  </metadata>
  <g
     transform="translate(225.1604,-85.068722)"
     id="layer1">
    <rect
       y="85.333328"
       x="-198.4375"
       height="13.229166"
       width="39.6875"
       id="rect831"
       style="fill:#88cc88;fill-opacity:1;fill-rule:evenodd;stroke:none;stroke-width:0.2;stroke-linecap:butt;stroke-linejoin:miter;stroke-miterlimit:4;stroke-dasharray:none;stroke-dashoffset:0;stroke-opacity:0.55686275;paint-order:markers stroke fill" />
    <g
       id="text821"
       style="font-style:normal;font-variant:normal;font-weight:bold;font-stretch:normal;font-size:14.11111069px;line-height:1.25;font-family:'DejaVu Sans';-inkscape-font-specification:'DejaVu Sans Bold';text-align:start;letter-spacing:0px;word-spacing:0px;direction:ltr;text-anchor:start;fill:#004400;fill-opacity:1;stroke:none;stroke-width:0.26458332"
       aria-label="True">
      <path
         id="path863"
         style="font-style:normal;font-variant:normal;font-weight:bold;font-stretch:normal;font-family:'Eeyek Unicode';-inkscape-font-specification:'Eeyek Unicode Bold';fill:#004400;fill-opacity:1;stroke-width:0.26458332"
         d="m -195.67855,86.704477 h 9.4809 v 2.005045 h -3.41064 v 8.282009 h -2.65273 v -8.282009 h -3.41753 z" />
      <path
         id="path865"
         style="font-style:normal;font-variant:normal;font-weight:bold;font-stretch:normal;font-family:'Eeyek Unicode';-inkscape-font-specification:'Eeyek Unicode Bold';fill:#004400;fill-opacity:1;stroke-width:0.26458332"
         d="m -180.7544,91.376026 q -0.32384,-0.151584 -0.64767,-0.220486 -0.31695,-0.07579 -0.64079,-0.07579 -0.95085,0 -1.46761,0.613227 -0.50988,0.606336 -0.50988,1.743218 v 3.555338 h -2.46668 v -7.717013 h 2.46668 v 1.267795 q 0.47543,-0.757921 1.08865,-1.102431 0.62012,-0.351399 1.48139,-0.351399 0.12403,0 0.26872,0.01378 0.1447,0.0069 0.4203,0.04134 z" />
      <path
         id="path867"
         style="font-style:normal;font-variant:normal;font-weight:bold;font-stretch:normal;font-family:'Eeyek Unicode';-inkscape-font-specification:'Eeyek Unicode Bold';fill:#004400;fill-opacity:1;stroke-width:0.26458332"
         d="m -179.59684,93.987408 v -4.71289 h 2.48047 v 0.771701 q 0,0.627007 -0.007,1.577854 -0.007,0.943956 -0.007,1.260905 0,0.930175 0.0482,1.343587 0.0482,0.406521 0.16536,0.592556 0.15158,0.241157 0.39274,0.372071 0.24805,0.130913 0.565,0.130913 0.7717,0 1.21267,-0.592556 0.44097,-0.592557 0.44097,-1.646756 v -3.810275 h 2.46669 v 7.717013 h -2.46669 V 95.87532 q -0.5581,0.675239 -1.18511,0.999078 -0.62012,0.316949 -1.37115,0.316949 -1.33669,0 -2.03949,-0.819933 -0.69591,-0.819932 -0.69591,-2.384006 z" />
      <path
         id="path869"
         style="font-style:normal;font-variant:normal;font-weight:bold;font-stretch:normal;font-family:'Eeyek Unicode';-inkscape-font-specification:'Eeyek Unicode Bold';fill:#004400;fill-opacity:1;stroke-width:0.26458332"
         d="m -161.75125,93.112354 v 0.702799 h -5.76709 q 0.0896,0.868164 0.62701,1.302246 0.53743,0.434083 1.50206,0.434083 0.77859,0 1.59163,-0.227377 0.81994,-0.234266 1.68121,-0.702799 v 1.901692 q -0.87506,0.33073 -1.75011,0.496094 -0.87505,0.172255 -1.75011,0.172255 -2.09462,0 -3.25906,-1.061089 -1.15755,-1.06798 -1.15755,-2.990343 0,-1.887913 1.13688,-2.969672 1.14377,-1.08176 3.14193,-1.08176 1.81901,0 2.90766,1.09554 1.09554,1.09554 1.09554,2.928331 z m -2.53559,-0.819933 q 0,-0.702799 -0.41341,-1.129991 -0.40652,-0.434082 -1.06798,-0.434082 -0.71658,0 -1.16444,0.406521 -0.44787,0.399631 -0.55811,1.157552 z" />
    </g>
    <rect
       y="85.333328"
       x="-158.75"
       height="13.229166"
       width="26.458332"
       id="rect833"
       style="fill:#882d61;fill-opacity:1;fill-rule:evenodd;stroke:none;stroke-width:0.2;stroke-linecap:butt;stroke-linejoin:miter;stroke-miterlimit:4;stroke-dasharray:none;stroke-dashoffset:0;stroke-opacity:0.55686275;paint-order:markers stroke fill" />
    <g
       id="text825"
       style="font-style:normal;font-variant:normal;font-weight:bold;font-stretch:normal;font-size:14.11111069px;line-height:1.25;font-family:'DejaVu Sans';-inkscape-font-specification:'DejaVu Sans Bold';text-align:start;letter-spacing:0px;word-spacing:0px;direction:ltr;text-anchor:start;fill:#fff0aa;fill-opacity:1;stroke:none;stroke-width:0.26458332"
       aria-label="List">
      <path
         id="path872"
         style="font-style:normal;font-variant:normal;font-weight:bold;font-stretch:normal;font-size:14.8166666px;font-family:'PaperCuts 2.0';-inkscape-font-specification:'PaperCuts 2.0 Bold';fill:#fff0aa;fill-opacity:1;stroke-width:0.26458332"
         d="m -155.17071,87.57044 2.16324,-0.859366 v 9.29005 l 4.72651,-0.770467 0.3556,2.237317 -7.06755,0.281516 z" />
      <path
         id="path874"
         style="font-style:normal;font-variant:normal;font-weight:bold;font-stretch:normal;font-size:14.8166666px;font-family:'PaperCuts 2.0';-inkscape-font-specification:'PaperCuts 2.0 Bold';fill:#fff0aa;fill-opacity:1;stroke-width:0.26458332"
         d="m -147.57971,88.10384 1.25941,0.281517 -0.34078,1.1557 -1.22978,-0.281517 z m -0.19262,2.474384 1.12607,-0.0889 0.68156,6.697133 -1.76318,0.770467 z" />
      <path
         id="path876"
         style="font-style:normal;font-variant:normal;font-weight:bold;font-stretch:normal;font-size:14.8166666px;font-family:'PaperCuts 2.0';-inkscape-font-specification:'PaperCuts 2.0 Bold';fill:#fff0aa;fill-opacity:1;stroke-width:0.26458332"
         d="m -140.70663,92.10434 -2.72627,-0.681566 -0.3556,0.84455 2.45957,1.20015 1.14088,4.13385 -5.23028,-0.474134 0.94827,-1.570566 2.81516,0.5334 -0.51858,-1.6891 -2.56328,-0.251884 -0.57785,-2.252133 0.78528,-1.674283 4.34128,0.518583 z" />
      <path
         id="path878"
         style="font-style:normal;font-variant:normal;font-weight:bold;font-stretch:normal;font-size:14.8166666px;font-family:'PaperCuts 2.0';-inkscape-font-specification:'PaperCuts 2.0 Bold';fill:#fff0aa;fill-opacity:1;stroke-width:0.26458332"
         d="m -137.82433,87.274107 0.0445,2.785533 1.85209,0.07408 -0.0445,0.948266 -1.91135,0.05927 -0.0445,5.37845 h 2.29658 l -0.0593,1.363133 -3.74861,0.103717 0.28151,-6.741583 -0.96308,-0.02963 v -1.126066 l 0.81492,-0.02963 0.0445,-2.163233 z" />
    </g>
    <rect
       y="85.333336"
       x="-224.89583"
       height="13.229167"
       width="26.45833"
       id="rect827"
       style="fill:#d49b6a;fill-opacity:1;fill-rule:evenodd;stroke:none;stroke-width:0.16568337;stroke-linecap:butt;stroke-linejoin:miter;stroke-miterlimit:4;stroke-dasharray:none;stroke-dashoffset:0;stroke-opacity:0.55686275;paint-order:markers stroke fill" />
    <g
       id="text817"
       style="font-style:normal;font-variant:normal;font-weight:bold;font-stretch:normal;font-size:14.11111069px;line-height:1.25;font-family:'DejaVu Sans';-inkscape-font-specification:'DejaVu Sans Bold';text-align:start;letter-spacing:0px;word-spacing:0px;direction:ltr;text-anchor:start;fill:#ffd1aa;fill-opacity:1;stroke:none;stroke-width:0.26458332"
       aria-label="One">
      <path
         id="path856"
         style="font-style:italic;font-variant:normal;font-weight:500;font-stretch:normal;font-size:16.93333244px;font-family:Z003;-inkscape-font-specification:'Z003 Medium Italic';fill:#ffd1aa;fill-opacity:1;stroke-width:0.26458332"
         d="m -216.40755,86.808647 c -1.40547,0 -3.2004,0.7112 -4.3688,1.710266 -1.35467,1.202267 -2.11667,3.064933 -2.11667,5.198533 0,2.167467 0.99907,3.318933 2.87867,3.318933 1.55787,0 3.21733,-0.728133 4.50427,-1.947333 1.23613,-1.185333 1.89653,-2.929466 1.89653,-4.995333 0,-2.1336 -0.98213,-3.285066 -2.794,-3.285066 z m -0.9652,0.6604 c 1.49013,0 2.37067,1.168399 2.37067,3.149599 0,1.303867 -0.33867,2.726267 -0.89747,3.7084 -0.72813,1.286933 -1.8796,2.032 -3.13267,2.032 -1.55786,0 -2.47226,-1.2192 -2.47226,-3.302 0,-3.1496 1.79493,-5.587999 4.13173,-5.587999 z" />
      <path
         id="path858"
         style="font-style:italic;font-variant:normal;font-weight:500;font-stretch:normal;font-size:16.93333244px;font-family:Z003;-inkscape-font-specification:'Z003 Medium Italic';fill:#ffd1aa;fill-opacity:1;stroke-width:0.26458332"
         d="m -211.72363,96.494513 0.99907,-3.979333 0.42333,-0.270934 c 1.5748,-0.982133 1.76106,-1.083733 1.99813,-1.083733 0.1016,0 0.16933,0.08467 0.16933,0.220133 0,0.270934 -0.11853,0.762 -0.62653,2.827867 -0.37253,1.490133 -0.44027,1.794933 -0.44027,2.116666 0,0.237067 0.0677,0.440267 0.254,0.762 0.762,-0.338666 1.94734,-1.083733 3.13267,-1.964266 l 0.11853,-0.474134 c -1.64253,0.948267 -1.76106,0.999067 -1.9304,0.999067 -0.16933,0 -0.27093,-0.169333 -0.27093,-0.4572 0,-0.4572 0.0677,-0.745067 0.8128,-3.437466 0.42333,-1.507067 0.42333,-1.507067 0.42333,-1.608667 0,-0.186267 -0.11853,-0.287867 -0.32173,-0.287867 -0.37253,0 -0.42333,0.03387 -2.25213,1.151467 -0.67733,0.423333 -1.1176,0.694267 -1.3208,0.829733 0.16933,-0.592666 0.4064,-1.6256 0.4064,-1.761066 0,-0.135467 -0.0847,-0.220134 -0.22013,-0.220134 -0.18627,0 -1.33774,0.592667 -2.65854,1.3716 l -0.1016,0.440267 c 1.08374,-0.491067 1.15147,-0.508 1.30387,-0.508 0.11853,0 0.2032,0.1016 0.2032,0.237067 0,0.372533 -0.3048,1.7272 -0.74507,3.301999 l -0.38946,1.3716 c -0.0339,0.118534 -0.11854,0.440267 -0.23707,0.9144 z" />
      <path
         id="path860"
         style="font-style:italic;font-variant:normal;font-weight:500;font-stretch:normal;font-size:16.93333244px;font-family:Z003;-inkscape-font-specification:'Z003 Medium Italic';fill:#ffd1aa;fill-opacity:1;stroke-width:0.26458332"
         d="m -200.26082,94.496379 c -1.35467,1.151467 -2.0828,1.5748 -2.72627,1.5748 -0.44027,0 -0.77893,-0.287866 -0.89747,-0.728133 -0.0677,-0.270933 -0.0847,-0.4572 -0.0847,-0.948267 0.77893,-0.491066 1.25306,-0.829733 2.25213,-1.574799 0.93133,-0.694267 1.27,-1.253067 1.27,-2.015067 0,-0.592667 -0.3556,-0.948267 -0.9652,-0.948267 -0.37253,0 -0.62653,0.08467 -1.03293,0.3048 -0.64347,0.372534 -1.2192,0.829734 -1.55787,1.236134 -0.64347,0.778933 -1.2192,2.6416 -1.2192,4.013199 0,0.999067 0.52493,1.6256 1.38853,1.6256 0.99907,0 2.286,-0.745066 3.556,-2.048933 z m -3.6576,-0.711199 c 0.28786,-1.8288 1.04986,-3.217334 1.79493,-3.217334 0.27093,0 0.4572,0.270934 0.4572,0.694267 0,0.846667 -0.49107,1.388533 -2.25213,2.523067 z" />
    </g>
    <rect
       y="85.333305"
       x="-224.89581"
       height="13.229166"
       width="92.604164"
       id="rect854"
       style="fill:none;fill-opacity:1;fill-rule:evenodd;stroke:#aa3939;stroke-width:0.5291667;stroke-linecap:butt;stroke-linejoin:miter;stroke-miterlimit:4;stroke-dasharray:none;stroke-dashoffset:0;stroke-opacity:1;paint-order:markers stroke fill" />
  </g>
</svg>
